<mxfile host="app.diagrams.net" modified="2023-10-20T16:33:03.011Z" agent="Mozilla/5.0 (Windows NT 10.0; Win64; x64) AppleWebKit/537.36 (KHTML, like Gecko) Chrome/118.0.0.0 Safari/537.36" etag="6hFzUe3V94n9T4ZBQook" version="22.0.6" type="device">
  <diagram name="Page-1" id="2YBvvXClWsGukQMizWep">
    <mxGraphModel dx="1434" dy="800" grid="1" gridSize="10" guides="1" tooltips="1" connect="1" arrows="1" fold="1" page="1" pageScale="1" pageWidth="850" pageHeight="1100" math="0" shadow="0">
      <root>
        <mxCell id="0" />
        <mxCell id="1" parent="0" />
        <mxCell id="bUbZ-e89j6tAC8CVxlZ--16" value="AndroCom&lt;br&gt;Application" style="shape=umlLifeline;perimeter=lifelinePerimeter;whiteSpace=wrap;html=1;container=1;dropTarget=0;collapsible=0;recursiveResize=0;outlineConnect=0;portConstraint=eastwest;newEdgeStyle={&quot;edgeStyle&quot;:&quot;elbowEdgeStyle&quot;,&quot;elbow&quot;:&quot;vertical&quot;,&quot;curved&quot;:0,&quot;rounded&quot;:0};" parent="1" vertex="1">
          <mxGeometry x="375" y="80" width="100" height="300" as="geometry" />
        </mxCell>
        <mxCell id="bUbZ-e89j6tAC8CVxlZ--36" value="" style="html=1;points=[[0,0,0,0,5],[0,1,0,0,-5],[1,0,0,0,5],[1,1,0,0,-5]];perimeter=orthogonalPerimeter;outlineConnect=0;targetShapes=umlLifeline;portConstraint=eastwest;newEdgeStyle={&quot;curved&quot;:0,&quot;rounded&quot;:0};" parent="bUbZ-e89j6tAC8CVxlZ--16" vertex="1">
          <mxGeometry x="45" y="80" width="10" height="180" as="geometry" />
        </mxCell>
        <mxCell id="bUbZ-e89j6tAC8CVxlZ--19" value="Local DataBase" style="shape=umlLifeline;perimeter=lifelinePerimeter;whiteSpace=wrap;html=1;container=1;dropTarget=0;collapsible=0;recursiveResize=0;outlineConnect=0;portConstraint=eastwest;newEdgeStyle={&quot;edgeStyle&quot;:&quot;elbowEdgeStyle&quot;,&quot;elbow&quot;:&quot;vertical&quot;,&quot;curved&quot;:0,&quot;rounded&quot;:0};" parent="1" vertex="1">
          <mxGeometry x="700" y="80" width="100" height="300" as="geometry" />
        </mxCell>
        <mxCell id="bUbZ-e89j6tAC8CVxlZ--35" value="" style="html=1;points=[[0,0,0,0,5],[0,1,0,0,-5],[1,0,0,0,5],[1,1,0,0,-5]];perimeter=orthogonalPerimeter;outlineConnect=0;targetShapes=umlLifeline;portConstraint=eastwest;newEdgeStyle={&quot;curved&quot;:0,&quot;rounded&quot;:0};" parent="bUbZ-e89j6tAC8CVxlZ--19" vertex="1">
          <mxGeometry x="45" y="90" width="10" height="150" as="geometry" />
        </mxCell>
        <mxCell id="bUbZ-e89j6tAC8CVxlZ--27" value="" style="shape=umlLifeline;perimeter=lifelinePerimeter;whiteSpace=wrap;html=1;container=1;dropTarget=0;collapsible=0;recursiveResize=0;outlineConnect=0;portConstraint=eastwest;newEdgeStyle={&quot;curved&quot;:0,&quot;rounded&quot;:0};participant=umlActor;" parent="1" vertex="1">
          <mxGeometry x="130" y="80" width="20" height="300" as="geometry" />
        </mxCell>
        <mxCell id="bUbZ-e89j6tAC8CVxlZ--33" value="" style="html=1;points=[[0,0,0,0,5],[0,1,0,0,-5],[1,0,0,0,5],[1,1,0,0,-5]];perimeter=orthogonalPerimeter;outlineConnect=0;targetShapes=umlLifeline;portConstraint=eastwest;newEdgeStyle={&quot;curved&quot;:0,&quot;rounded&quot;:0};" parent="bUbZ-e89j6tAC8CVxlZ--27" vertex="1">
          <mxGeometry x="5" y="70" width="10" height="50" as="geometry" />
        </mxCell>
        <mxCell id="bUbZ-e89j6tAC8CVxlZ--37" value="" style="fontSize=12;html=1;endArrow=blockThin;endFill=1;rounded=0;" parent="1" edge="1">
          <mxGeometry width="160" relative="1" as="geometry">
            <mxPoint x="430" y="228" as="sourcePoint" />
            <mxPoint x="740" y="228" as="targetPoint" />
          </mxGeometry>
        </mxCell>
        <mxCell id="bUbZ-e89j6tAC8CVxlZ--41" value="&amp;nbsp;Storing (Input) )" style="edgeLabel;html=1;align=center;verticalAlign=middle;resizable=0;points=[];" parent="bUbZ-e89j6tAC8CVxlZ--37" vertex="1" connectable="0">
          <mxGeometry x="-0.0323" y="1" relative="1" as="geometry">
            <mxPoint as="offset" />
          </mxGeometry>
        </mxCell>
        <mxCell id="bUbZ-e89j6tAC8CVxlZ--38" value="" style="fontSize=12;html=1;endArrow=blockThin;endFill=1;rounded=0;" parent="1" source="bUbZ-e89j6tAC8CVxlZ--33" target="bUbZ-e89j6tAC8CVxlZ--36" edge="1">
          <mxGeometry width="160" relative="1" as="geometry">
            <mxPoint x="150" y="190" as="sourcePoint" />
            <mxPoint x="310" y="190" as="targetPoint" />
            <Array as="points">
              <mxPoint x="340" y="180" />
            </Array>
          </mxGeometry>
        </mxCell>
        <mxCell id="bUbZ-e89j6tAC8CVxlZ--40" value="&amp;nbsp;Register (Input)&amp;nbsp;" style="edgeLabel;html=1;align=center;verticalAlign=middle;resizable=0;points=[];" parent="bUbZ-e89j6tAC8CVxlZ--38" vertex="1" connectable="0">
          <mxGeometry x="-0.0857" y="-2" relative="1" as="geometry">
            <mxPoint as="offset" />
          </mxGeometry>
        </mxCell>
        <mxCell id="bUbZ-e89j6tAC8CVxlZ--43" value="" style="html=1;verticalAlign=bottom;endArrow=open;dashed=1;endSize=8;curved=0;rounded=0;" parent="1" edge="1">
          <mxGeometry x="-0.0364" y="-4" relative="1" as="geometry">
            <mxPoint x="740" y="260" as="sourcePoint" />
            <mxPoint x="430" y="260" as="targetPoint" />
            <Array as="points">
              <mxPoint x="605" y="260" />
            </Array>
            <mxPoint as="offset" />
          </mxGeometry>
        </mxCell>
        <mxCell id="bUbZ-e89j6tAC8CVxlZ--44" value="success" style="edgeLabel;html=1;align=center;verticalAlign=middle;resizable=0;points=[];" parent="bUbZ-e89j6tAC8CVxlZ--43" vertex="1" connectable="0">
          <mxGeometry x="0.1203" y="-3" relative="1" as="geometry">
            <mxPoint x="18" as="offset" />
          </mxGeometry>
        </mxCell>
        <mxCell id="bUbZ-e89j6tAC8CVxlZ--46" value="" style="html=1;verticalAlign=bottom;endArrow=open;dashed=1;endSize=8;curved=0;rounded=0;" parent="1" edge="1">
          <mxGeometry x="-0.0364" y="-4" relative="1" as="geometry">
            <mxPoint x="739.5" y="310" as="sourcePoint" />
            <mxPoint x="430" y="310" as="targetPoint" />
            <Array as="points" />
            <mxPoint as="offset" />
          </mxGeometry>
        </mxCell>
        <mxCell id="bUbZ-e89j6tAC8CVxlZ--47" value="&amp;nbsp;Fail&amp;nbsp;" style="edgeLabel;html=1;align=center;verticalAlign=middle;resizable=0;points=[];" parent="bUbZ-e89j6tAC8CVxlZ--46" vertex="1" connectable="0">
          <mxGeometry x="0.1203" y="-3" relative="1" as="geometry">
            <mxPoint x="8" as="offset" />
          </mxGeometry>
        </mxCell>
        <mxCell id="bUbZ-e89j6tAC8CVxlZ--50" value="" style="shape=umlDestroy;whiteSpace=wrap;html=1;strokeWidth=3;targetShapes=umlLifeline;" parent="1" vertex="1">
          <mxGeometry x="125" y="390" width="30" height="30" as="geometry" />
        </mxCell>
        <mxCell id="bUbZ-e89j6tAC8CVxlZ--51" value="" style="shape=umlDestroy;whiteSpace=wrap;html=1;strokeWidth=3;targetShapes=umlLifeline;" parent="1" vertex="1">
          <mxGeometry x="735" y="390" width="30" height="30" as="geometry" />
        </mxCell>
        <mxCell id="bUbZ-e89j6tAC8CVxlZ--52" value="" style="shape=umlDestroy;whiteSpace=wrap;html=1;strokeWidth=3;targetShapes=umlLifeline;" parent="1" vertex="1">
          <mxGeometry x="410" y="390" width="30" height="30" as="geometry" />
        </mxCell>
        <mxCell id="bUbZ-e89j6tAC8CVxlZ--53" value="&lt;p style=&quot;margin:0px;margin-top:4px;margin-left:5px;text-align:left;&quot;&gt;&lt;b&gt;Storing Data&amp;nbsp;&lt;/b&gt;&lt;/p&gt;" style="html=1;shape=mxgraph.sysml.package;overflow=fill;labelX=95;align=left;spacingLeft=5;verticalAlign=top;spacingTop=-3;fillColor=none;" parent="1" vertex="1">
          <mxGeometry x="20" y="210" width="780" height="145" as="geometry" />
        </mxCell>
        <mxCell id="bUbZ-e89j6tAC8CVxlZ--60" value="" style="endArrow=none;html=1;rounded=0;exitX=0;exitY=0.5;exitDx=0;exitDy=0;exitPerimeter=0;entryX=1;entryY=0.5;entryDx=0;entryDy=0;entryPerimeter=0;" parent="1" source="bUbZ-e89j6tAC8CVxlZ--53" target="bUbZ-e89j6tAC8CVxlZ--53" edge="1">
          <mxGeometry width="50" height="50" relative="1" as="geometry">
            <mxPoint x="570" y="390" as="sourcePoint" />
            <mxPoint x="810" y="290" as="targetPoint" />
          </mxGeometry>
        </mxCell>
        <mxCell id="bUbZ-e89j6tAC8CVxlZ--64" value="if Successful&amp;nbsp;" style="text;html=1;strokeColor=none;fillColor=none;align=center;verticalAlign=middle;whiteSpace=wrap;rounded=0;" parent="1" vertex="1">
          <mxGeometry x="20" y="240" width="110" height="30" as="geometry" />
        </mxCell>
        <mxCell id="bUbZ-e89j6tAC8CVxlZ--65" value="else" style="text;html=1;strokeColor=none;fillColor=none;align=center;verticalAlign=middle;whiteSpace=wrap;rounded=0;" parent="1" vertex="1">
          <mxGeometry x="20" y="300" width="110" height="30" as="geometry" />
        </mxCell>
      </root>
    </mxGraphModel>
  </diagram>
</mxfile>
